# xmcd
#
# Track frame offsets:
#	150
#	21024
#	42996
#	60318
#	79517
#	94812
#	122588
#	142423
#	156760
#	183893
#	206384
#	218895
#	229023
#	242456
#	253427
#	265117
#	283717
#	297276
#
# Disc length: 4333 seconds
#
# Revision: 5
# Processed by: cddbd v1.5.2PL0 Copyright (c) Steve Scherf et al.
# Submitted via: EZCDAudioConverter 3.1.0.1
#
DISCID=0110eb12
DTITLE=Screamin' Jay Hawkins - Best Of The Bizarre Sessions 1990-1994
DYEAR=2000
DGENRE=Rhythm and Blues
TTITLE0=Swamp Gas
TTITLE1=Voodoo Priestess
TTITLE2=Brujo
TTITLE3=I Am The Cool
TTITLE4=Ice Cream Man
TTITLE5=Fourteen Wives
TTITLE6=Heart Attack and Vine
TTITLE7=Somethin' Funny Going' On
TTITLE8=Ignant and Shit
TTITLE9=Shut Your Mouth When You Sneeze (Previously Unreleased)
TTITLE10=You Make Me Sick
TTITLE11=Just for You (Previously Unreleased)
TTITLE12=Give It A Break
TTITLE13=Stone Crazy
TTITLE14=Make You Mine (Previously Unreleased)
TTITLE15=I Want Your Body
TTITLE16=Upsettin' Me (Previously Unreleased)
TTITLE17=Ol' Man River
EXTD=
EXTT0=
EXTT1=
EXTT2=
EXTT3=
EXTT4=
EXTT5=
EXTT6=
EXTT7=
EXTT8=
EXTT9=
EXTT10=
EXTT11=
EXTT12=
EXTT13=
EXTT14=
EXTT15=
EXTT16=
EXTT17=
PLAYORDER=
